<svg width="633" height="290" viewBox="0 0 633 290" fill="none" xmlns="http://www.w3.org/2000/svg">
<path d="M203.556 254.68C203.806 257.3 204.096 259.14 204.136 260.98C204.176 262.55 204.206 264.21 203.756 265.69C203.046 268.01 202.436 270.66 200.886 272.35C198.316 275.15 195.296 277.74 191.996 279.6C186.626 282.63 180.376 282.65 174.586 281.8C167.546 280.76 160.686 278.38 153.786 276.46C150.496 275.55 147.216 274.52 144.066 273.23C142.556 272.61 141.336 271.27 139.986 270.25C139.626 269.98 139.296 269.54 138.896 269.46C130.186 267.82 124.516 261.43 118.436 255.93C110.376 248.65 103.236 240.52 98.4256 230.58C98.0356 229.77 96.3056 229 95.3856 229.17C92.6856 229.7 90.1056 230.82 87.4356 231.52C78.4956 233.85 69.5356 236.06 60.5956 238.41C56.1556 239.58 51.8056 241.15 47.3256 242.12C45.0756 242.61 42.6156 242.08 40.2556 242.22C39.1556 242.28 38.0956 243.11 36.9956 243.14C29.7556 243.37 22.5656 243.42 16.2656 238.85C7.42563 232.44 2.38563 223.89 0.395633 213.15C-0.894367 206.21 1.31562 199.88 2.10562 193.24C3.41562 182.17 11.1256 175.3 17.1556 167.29C19.9156 163.63 23.3956 160.51 26.3856 157.01C30.8056 151.83 34.9756 146.45 39.4556 141.33C41.3256 139.19 43.6656 137.44 45.9056 135.66C47.2956 134.55 48.7756 134.63 49.3656 136.58C49.5156 137.06 48.7656 138.34 48.3656 138.37C44.2356 138.69 42.6556 142.19 40.0456 144.4C40.1956 144.63 40.3356 144.87 40.4856 145.1C44.3856 142.8 48.3656 140.63 52.1756 138.19C58.7056 134 64.9556 129.33 71.6656 125.48C74.8456 123.66 78.7656 122.82 82.4656 122.29C87.8656 121.52 91.3056 124.14 92.8656 129.36C93.1556 130.33 93.3356 131.35 93.6756 132.3C94.4456 134.49 95.7156 135.81 98.3756 135.64C107.186 135.07 115.896 136.09 124.526 137.83C125.786 138.08 127.176 138.34 128.186 139.05C135.126 143.89 143.606 146.41 149.246 153.24C151.676 156.18 153.776 159.18 154.176 163.04C154.256 163.86 153.646 164.75 154.156 165.57C154.316 166.84 154.566 168.11 154.616 169.38C154.686 170.91 154.686 172.46 154.546 173.98C154.386 175.69 154.066 177.39 153.736 179.09C153.466 180.5 153.206 181.94 152.706 183.27C152.406 184.05 151.716 185.15 151.066 185.25C148.306 185.69 146.916 187.8 147.056 189.88C147.426 195.55 143.456 198.73 140.656 202.62C140.116 203.37 139.366 203.96 138.816 204.69C137.676 206.21 136.586 207.21 135.116 203.97C133.096 208.65 128.006 210.18 127.276 215.18C127.196 215.76 126.396 216.3 125.836 216.72C124.666 217.6 123.416 218.39 122.256 219.19C124.316 222.13 125.656 224.77 127.666 226.71C129.596 228.57 132.256 229.64 134.516 231.17C136.816 232.72 139.236 234.19 141.236 236.08C146.976 241.5 153.916 244.54 161.286 246.93C165.716 248.37 169.996 250.34 174.476 251.55C182.326 253.67 190.046 253.17 197.116 248.75C199.016 247.56 200.396 247.68 201.656 249.33C201.656 249.33 203.156 250.74 203.576 254.69M85.9756 212.11C83.2356 207.27 80.9856 203.08 78.5256 199.02C74.8556 192.95 69.9756 187.99 64.5956 183.34C60.4256 179.73 55.7756 177.32 50.8356 175.23C47.8656 173.97 44.9556 173.95 42.7056 176.56C41.2556 178.24 40.3456 180.39 38.8956 182.08C30.6956 191.69 25.8956 203.08 21.5256 214.71C20.8656 216.48 21.2456 218.09 23.2056 218.79C25.1556 219.5 27.1456 220.25 29.1856 220.53C31.8556 220.9 34.5956 220.72 37.2956 220.96C41.0756 221.3 44.8356 221.81 48.7456 222.27V220.73C61.3056 217.82 73.5756 214.99 85.9756 212.12M59.3556 165.14C59.4156 165.54 59.4856 165.93 59.5456 166.33C60.5056 166.84 61.4756 167.34 62.4356 167.86C69.1456 171.53 75.9956 174.98 82.5356 178.93C91.6856 184.45 98.6556 192.43 105.756 200.25C106.416 200.98 108.236 201.63 108.866 201.25C116.576 196.57 123.816 191.32 128.316 183.17C129.006 181.92 129.366 180.46 130.166 179.3C130.886 178.25 130.986 174.05 130.166 173.07C128.596 171.2 127.096 169.28 129.126 166.73C129.356 166.44 128.936 165.64 128.816 165.08C126.926 166.27 126.886 164.33 126.266 163.51C123.466 159.73 120.696 156.08 115.076 157C113.926 157.19 112.616 156.32 111.356 156.05C108.236 155.38 105.136 154.51 101.976 154.22C98.7656 153.93 95.4856 154.08 92.2656 154.35C90.7256 154.48 89.0656 155.07 87.7956 155.94C85.7856 157.33 83.9056 158.01 81.3556 157.62C79.7156 157.36 77.4456 157.7 76.2556 158.72C73.5756 161.02 70.6256 161.99 67.2556 162.59C64.5556 163.07 61.9856 164.26 59.3656 165.14" fill="white"/>
<path d="M623.766 134.21C624.316 134.88 624.866 135.56 625.496 136.33C626.556 133.19 624.746 126.17 622.476 124.42C622.096 124.13 621.456 124.19 620.986 123.99C620.286 123.7 619.546 123.4 619.006 122.91C618.836 122.75 619.156 121.59 619.416 121.52C620.146 121.32 621.346 121.11 621.696 121.5C623.566 123.57 626.096 125.58 626.836 128.07C629.746 137.87 630.276 147.88 627.726 157.92C627.326 159.49 627.156 161.11 627.476 162.79C632.026 154.14 630.256 144.63 631.526 135.33C631.766 136.83 632.216 138.33 632.196 139.82C632.116 145.82 632.146 151.83 631.636 157.8C631.056 164.55 626.586 169.53 622.986 174.86C622.076 176.21 621.346 177.68 620.526 179.08C619.586 180.68 618.806 182.41 617.676 183.86C615.016 187.26 611.896 190.32 609.546 193.91C608.246 195.89 606.276 196.77 604.876 198.35C601.836 201.78 598.086 203.83 593.926 205.5C592.246 206.18 591.086 208.07 589.436 208.93C584.736 211.36 579.866 213.41 574.526 214.09C571.436 214.48 570.116 216.59 570.286 219.74C570.716 227.75 570.916 235.77 571.256 243.79C571.346 245.81 571.476 247.84 571.826 249.82C572.816 255.52 571.616 260.9 569.276 265.99C567.566 269.71 563.776 269.74 560.366 269.77C557.376 269.8 556.206 267.46 555.246 265.02C554.486 263.1 554.146 260.83 551.436 260.37C551.086 260.31 550.646 258.88 550.796 258.21C551.846 253.45 553.046 248.73 554.156 243.99C554.346 243.18 554.436 242.29 554.296 241.49C554.056 240.15 553.326 238.87 553.276 237.55C553.116 232.56 553.146 227.56 553.086 222.57C553.086 222.42 552.886 222.27 552.466 221.68C550.516 222.57 548.346 223.31 546.446 224.48C542.326 227.01 538.426 229.9 534.276 232.38C529.996 234.94 529.286 239.64 527.446 243.52C523.366 252.1 519.816 260.93 516.186 269.71C514.746 273.19 507.996 277.26 504.236 276.46C503.396 276.28 502.146 275.44 502.046 274.76C501.476 271.04 500.206 267.71 498.626 264.25C496.016 258.53 498.356 253.02 501.016 247.66C503.316 243.02 505.056 238.09 507.046 233.3C507.536 232.11 508.146 230.96 508.536 229.74C509.196 227.69 509.566 225.53 510.346 223.54C511.316 221.07 512.696 218.76 513.686 216.3C514.626 213.95 515.116 211.41 516.116 209.09C519.236 201.8 521.946 194.24 525.906 187.41C528.766 182.47 528.986 176.93 531.346 172.02C531.816 171.03 532.576 170.17 533.236 169.28C533.996 168.26 535.416 167.29 535.466 166.25C535.686 161.63 538.306 158.02 541.036 155.03C546.146 149.42 551.586 143.86 559.526 142.07C563.556 141.16 566.836 143.04 569.676 145.94C572.836 149.17 573.986 152.98 574.676 157.03C575.086 159.42 575.306 162.22 574.466 164.38C572.276 170 572.696 175.54 573.576 181.24C573.896 183.35 573.626 185.55 573.626 188.51C578.006 185.52 581.806 183.02 585.506 180.38C593.786 174.49 599.216 166.14 603.686 157.39C606.586 151.72 608.596 145.27 609.396 138.97C609.866 135.29 607.116 131.23 605.916 127.31C605.446 125.77 604.566 123.09 605.086 122.75C606.696 121.68 608.866 121.23 610.866 121.06C611.536 121 612.386 122.46 613.076 123.29C613.736 124.08 614.286 124.97 615.386 126.51C615.486 124.87 615.536 124.16 615.606 123.01C619.246 125.4 620.516 128.92 620.996 132.49C621.446 135.82 620.866 139.28 620.856 142.69C620.856 143.89 621.186 145.09 621.356 146.29C622.096 145.29 623.346 144.34 623.476 143.27C623.836 140.28 623.736 137.24 623.806 134.22L623.766 134.21ZM564.116 171.44C563.406 170 562.806 168.79 562.206 167.58C561.566 168.17 560.716 168.64 560.326 169.36C554.406 180.52 548.526 191.71 542.706 202.92C542.036 204.21 541.646 205.67 541.346 207.1C541.296 207.33 542.696 208.26 542.966 208.1C547.736 205.24 552.446 202.28 557.136 199.29C557.556 199.02 558.046 198.52 558.106 198.07C558.876 192.56 559.496 187.03 560.326 181.53C560.546 180.03 561.266 178.59 561.816 177.15C562.516 175.31 563.286 173.48 564.106 171.44M612.486 153.3C612.036 153.01 611.576 152.72 611.126 152.42C607.716 158.53 604.306 164.63 600.896 170.74C601.256 170.95 601.626 171.17 601.986 171.38C605.486 165.35 608.986 159.33 612.486 153.3ZM627.026 154.27L625.826 153.74C624.096 157.03 622.316 160.29 620.686 163.63C620.456 164.1 620.916 164.92 621.056 165.58C621.646 165.25 622.546 165.06 622.766 164.57C624.266 161.18 625.616 157.72 627.026 154.28M611.566 124.14C611.776 123.81 611.986 123.49 612.196 123.16C611.556 122.77 610.926 122.39 610.286 122C610.106 122.27 609.936 122.53 609.756 122.8C610.356 123.25 610.956 123.69 611.556 124.14M588.176 179.14C588.316 179.48 588.456 179.83 588.596 180.17C589.316 179.8 590.036 179.43 590.756 179.07C590.626 178.78 590.486 178.49 590.346 178.2C589.626 178.51 588.896 178.83 588.176 179.14Z" fill="white"/>
<path d="M387.956 23.6698C391.116 15.2998 398.776 14.4098 405.676 12.1398C417.876 8.1098 430.556 7.63981 443.226 7.07981C448.746 6.82981 454.276 6.66986 459.806 6.56986C460.696 6.54986 461.606 6.95986 462.476 7.25986C467.606 9.08986 469.066 12.0498 467.836 17.3998C465.736 26.4998 461.096 33.9398 453.786 39.7298C449.816 42.8798 445.916 46.1098 441.886 49.1798C440.026 50.5898 439.436 52.1399 439.896 54.4499C440.496 57.4299 440.526 60.5299 441.166 63.4999C442.896 71.4899 444.656 79.4798 446.706 87.3898C449.826 99.4298 455.346 110.3 463.086 120.09C467.626 125.84 473.106 130.12 479.976 132.65C482.536 133.59 485.036 134.7 487.846 135.84C485.336 138.78 483.046 141.65 480.536 144.32C479.456 145.47 478.046 146.47 476.596 147.05C471.896 148.94 467.506 150.6 461.836 149.6C455.406 148.47 451.796 145.15 448.736 140.21C447.476 138.17 446.126 136.15 445.106 133.99C444.686 133.09 445.426 131.6 444.946 130.79C439.126 120.94 437.786 109.49 433.496 99.1498C430.336 91.5498 428.536 83.7298 426.906 75.7798C426.116 71.9098 424.916 68.1098 423.726 64.3298C423.206 62.6898 422.116 61.5598 420.146 62.8498C418.066 64.2098 415.706 65.2498 413.936 66.9298C413.026 67.7898 412.646 69.8098 412.856 71.1798C414.176 79.4798 415.656 87.7498 417.256 95.9998C417.796 98.7999 418.776 101.52 419.656 104.25C421.406 109.63 420.906 111.02 415.926 113.78C414.326 114.67 412.796 115.99 411.086 116.3C405.626 117.28 400.686 113.16 400.676 107.59C400.676 100.34 400.996 93.0898 401.186 85.8298C401.326 80.1998 401.536 74.5799 401.606 68.9499C401.706 60.5799 401.666 52.2098 401.766 43.8398C401.796 41.1998 401.386 39.2798 398.026 39.5498C396.796 39.6498 395.506 39.0799 394.846 38.9399C392.496 35.5699 390.406 32.5898 388.316 29.5998C387.766 26.7698 387.986 23.6698 387.986 23.6698M413.676 49.4999V49.5498C413.656 49.4598 413.646 49.3898 413.656 49.2998C413.656 49.2598 417.486 48.0299 417.836 47.8799C419.436 47.1899 420.996 46.4298 422.586 45.7298C425.416 44.4898 428.306 43.3798 431.016 41.9098C435.116 39.6798 436.386 38.5498 440.496 36.3298C442.686 35.1498 444.946 34.0598 446.866 32.4698C448.696 30.9598 450.916 28.3099 450.476 25.7599C449.636 20.8999 445.026 19.6398 442.006 20.2398C439.146 20.8098 436.296 21.3999 433.446 22.0099C428.526 23.0599 423.476 24.2098 419.196 26.9698C417.936 27.7798 416.476 28.7698 415.736 30.0998C414.886 31.6298 414.596 35.3999 414.486 37.1299C414.226 41.2499 413.976 45.3799 413.676 49.4999ZM446.426 106.95C446.696 106.85 446.956 106.75 447.226 106.65C446.686 105.11 446.156 103.56 445.616 102.02C445.286 102.14 444.956 102.27 444.616 102.39C445.216 103.91 445.826 105.43 446.426 106.94M410.816 16.4298C410.736 16.1298 410.656 15.8298 410.586 15.5398C409.276 15.8898 407.966 16.2498 406.656 16.5998C406.726 16.8698 406.796 17.1398 406.866 17.3998C408.186 17.0798 409.506 16.7498 410.816 16.4298ZM466.966 140.65C466.726 140.92 466.486 141.19 466.246 141.46L469.346 143.77C469.506 143.58 469.656 143.38 469.816 143.19C468.866 142.34 467.906 141.5 466.956 140.65M452.086 141.36C452.416 141.04 452.736 140.71 453.066 140.39C452.666 139.99 452.256 139.59 451.856 139.19C451.536 139.51 451.216 139.83 450.906 140.14C451.306 140.55 451.696 140.95 452.096 141.36M471.066 148.32C470.696 147.98 470.476 147.62 470.236 147.61C469.976 147.61 469.696 147.91 469.426 148.09C469.646 148.39 469.816 148.77 470.116 148.95C470.236 149.02 470.626 148.63 471.066 148.33" fill="white"/>
<path d="M237.146 251.42C234.906 253.58 234.026 251.09 232.766 249.78C231.026 247.98 229.106 246.32 227.626 244.32C225.706 241.73 223.046 239 222.696 236.09C222.196 231.94 222.836 227.35 224.206 223.37C225.706 219.03 227.726 214.73 231.816 211.7C233.836 210.2 234.586 207.1 236.446 205.25C239.426 202.27 242.846 199.73 246.106 196.98C243.566 194.55 240.796 192.03 238.186 189.36C235.516 186.64 234.986 183.33 235.606 179.6C236.806 172.35 240.066 166.7 246.016 162.01C253.846 155.84 262.626 152.04 271.986 149.44C281.176 146.9 290.596 146.79 299.996 148.58C311.956 150.85 312.076 160.48 309.366 168.44C308.246 171.73 300.656 174.87 296.926 174.05C287.716 172.03 278.406 170.67 268.966 171.05C264.496 171.23 260.756 173.37 258.406 177.2C255.306 182.24 255.386 182.72 261.336 183.66C266.476 184.47 271.796 184.09 277.016 184.52C280.756 184.83 284.476 185.53 288.176 186.2C290.086 186.54 291.066 187.69 291.256 189.85C291.486 192.47 292.426 195.03 292.786 197.65C293.176 200.41 291.566 201.91 288.956 201.98C285.846 202.06 282.666 202.07 279.606 201.58C273.286 200.57 266.936 200.31 261.166 203.09C257.676 204.77 254.406 207.56 251.936 210.58C248.086 215.28 244.926 220.55 241.616 225.67C240.586 227.27 239.796 229.12 239.306 230.97C238.556 233.78 239.916 235.26 242.796 235.06C245.086 234.9 247.396 234.75 249.656 234.34C254.796 233.41 260.136 232.92 264.966 231.11C268.916 229.62 272.246 226.48 275.846 224.07C275.986 223.98 276.036 223.66 276.156 223.64C280.596 222.95 280.496 218.67 282.036 215.86C284.216 211.88 286.526 210.61 291.046 212.12C298.546 214.62 304.806 224.69 303.296 232.44C302.856 234.67 301.526 236.95 300.026 238.72C295.476 244.12 291.506 250.13 284.636 253.17C275.296 257.31 266.206 261.23 255.396 258.38C250.286 257.03 245.046 256.29 240.306 253.82C239.176 253.23 238.236 252.27 237.146 251.42Z" fill="white"/>
<path d="M343.246 235.78C342.786 235.96 342.026 236.42 341.916 236.29C339.946 234.08 338.046 231.82 336.176 229.54C335.906 229.21 335.666 228.63 335.766 228.26C336.996 223.84 332.896 222.63 331.126 219.41C330.496 220.48 330.066 220.9 330.016 221.37C329.176 228.42 327.566 235.51 327.866 242.51C328.086 247.68 326.236 251.96 324.976 256.51C323.676 261.19 321.756 261.28 317.186 260.1C312.986 259.01 312.516 256.54 312.786 253.15C312.916 251.5 313.186 249.85 313.346 248.2C313.736 244.08 314.136 239.97 314.446 235.84C314.956 229.06 315.036 222.23 315.936 215.51C318.136 199.15 320.866 182.86 323.016 166.49C323.706 161.2 323.356 155.77 323.256 150.4C323.226 148.9 322.566 147.32 321.856 145.95C320.866 144.04 321.146 142.28 322.756 141.31C323.976 140.58 326.096 140.1 327.226 140.68C331.376 142.79 335.526 145.09 339.176 147.94C340.746 149.17 341.216 151.91 341.976 154.04C342.286 154.9 342.026 155.96 342.026 156.46C345.776 153.04 349.876 149.78 353.396 145.98C358.736 140.22 363.706 134.18 371.616 131.7C374.966 130.65 383.016 132.77 384.686 135.86C386.516 139.26 388.456 142.8 389.216 146.51C389.706 148.94 388.406 151.86 387.536 154.44C383.536 166.23 377.356 176.93 370.466 187.21C368.916 189.52 366.336 191.12 364.346 193.16C362.616 194.93 361.066 196.87 359.386 198.7C356.186 202.2 352.956 205.67 349.696 209.19C352.486 212.95 355.476 217.36 358.866 221.44C363.886 227.47 369.426 233.08 374.296 239.22C377.886 243.75 382.776 245.44 387.876 246.75C390.316 247.38 390.296 248.16 389.226 249.86C383.366 259.16 371.716 263.18 362.176 253.54C359.236 250.57 356.276 247.61 352.966 244.28C354.136 244.1 354.766 244.01 356.586 243.74C352.086 238.43 348.076 233.68 344.056 228.94C344.456 232.99 346.746 235.75 349.356 238.38C350.506 239.54 353.006 240.5 350.996 242.68C350.786 242.91 348.316 241.36 347.166 240.33C345.686 239 344.496 237.36 343.176 235.85C342.426 234.65 341.676 233.46 340.926 232.27C340.666 232.48 340.416 232.7 340.156 232.91C341.186 233.87 342.216 234.82 343.246 235.78ZM355.706 182.69C358.916 178.64 362.286 174.65 364.876 170.22C367.216 166.21 368.956 161.76 370.296 157.3C371.286 153.99 368.596 151.7 365.396 152.81C361.946 154.01 358.476 155.26 356.296 158.65C354.486 161.47 352.356 164.08 350.336 166.77C345.316 173.44 341.026 180.44 339.756 188.92C339.466 190.84 338.766 192.7 338.196 194.82C343.636 194.12 347.486 191.78 350.406 187.77L355.706 182.69Z" fill="white"/>
<path d="M225.936 122.68C231.206 123.31 235.086 118.87 236.256 114.39C239.036 103.76 239.486 92.8599 240.766 82.0499C240.946 80.5499 242.426 78.8999 243.746 77.9199C245.466 76.6499 245.886 75.5398 244.626 73.5898C244.016 74.1098 243.466 74.5899 242.916 75.0599C242.586 74.9899 242.266 74.9299 241.936 74.8599C242.146 71.8399 242.316 68.8098 242.576 65.7898C242.826 62.9398 243.266 60.0999 243.476 57.2499C243.596 55.6599 243.386 54.2799 245.606 53.7499C246.966 53.4199 246.626 52.3799 245.486 51.3199C244.656 50.5399 244.386 48.8799 244.386 47.6099C244.386 47.1299 245.816 46.6499 246.486 46.2399V27.5798C244.386 28.2198 242.076 28.9099 239.786 29.6299C233.016 31.7399 226.316 34.1199 219.456 35.9198C210.896 38.1698 206.896 34.4598 202.426 29.0398C200.336 26.5098 199.306 22.9899 198.286 19.7599C197.856 18.3899 198.376 16.4498 199.086 15.0898C199.436 14.4098 201.726 13.8398 202.226 14.2798C207.146 18.5698 212.596 17.0599 217.826 15.6999C226.596 13.4199 235.286 10.7999 243.946 8.11986C256.886 4.12986 270.086 1.21984 283.546 0.18984C291.216 -0.40016 299.066 0.499844 306.766 1.31984C313.036 1.97984 315.996 6.36984 315.396 12.7198C315.076 16.0998 308.346 21.3298 304.966 20.8298C304.696 20.7898 304.326 20.7999 304.176 20.6299C298.786 14.7699 292.346 19.0098 286.396 18.8398C284.136 18.7698 281.786 19.1699 279.606 19.8099C277.976 20.2899 275.896 21.1399 275.196 22.4499C273.426 25.7399 272.076 29.3198 271.026 32.9098C269.496 38.1398 268.166 43.4398 267.156 48.7898C266.266 53.5198 265.976 58.3598 265.376 63.1498C264.746 68.2298 263.946 73.2898 263.446 78.3898C263.156 81.3098 263.326 84.2698 263.246 87.2098C263.196 88.9498 263.256 90.7299 262.946 92.4299C261.826 98.4799 260.576 104.51 259.336 110.54C258.466 114.79 257.666 119.06 256.596 123.26C255.496 127.56 249.406 132.19 244.436 131.46C240.536 130.89 236.376 131.01 232.796 129.63C229.896 128.51 227.686 125.62 225.166 123.52C225.426 123.25 225.676 122.97 225.936 122.7M309.086 9.92986C308.706 11.9999 308.366 13.8498 307.936 16.2198C310.396 13.8598 310.666 12.0799 309.086 9.92986ZM262.716 56.6199C262.986 56.6599 263.246 56.7099 263.516 56.7499C263.806 55.1399 264.096 53.5298 264.386 51.9098C264.126 51.8698 263.866 51.8298 263.606 51.7898C263.306 53.3998 263.016 55.0099 262.716 56.6199ZM271.766 4.36986C271.756 4.64986 271.736 4.92986 271.726 5.20986H273.596C273.606 4.97986 273.616 4.74984 273.626 4.52984C273.006 4.47984 272.386 4.42986 271.766 4.36986Z" fill="white"/>
<path d="M496.866 30.3298C500.376 26.5398 503.916 22.7599 507.406 18.9399C509.446 16.6999 511.046 13.7299 513.536 12.3199C515.646 11.1299 518.756 11.5899 521.436 11.5599C529.706 11.4499 535.696 16.1998 538.976 22.7698C541.976 28.7798 542.246 36.0098 539.586 42.7698C538.406 45.7698 537.726 49.1599 535.866 51.6599C530.256 59.2099 525.936 67.9699 517.006 72.6199C512.936 74.7399 509.106 77.3099 505.146 79.6299C503.376 80.6699 503.146 81.8999 503.926 83.7899C506.816 90.7899 510.646 97.2099 515.926 102.62C517.946 104.69 520.546 106.27 523.056 107.78C524.756 108.8 525.026 109.59 523.836 111.21C520.316 116.02 511.396 117.26 506.776 113.49C500.506 108.38 495.466 102.38 492.136 94.8799C490.466 91.1099 487.946 87.7099 485.726 84.1999C485.446 83.7599 484.616 83.3199 484.176 83.4399C483.766 83.5499 483.356 84.3598 483.286 84.8998C482.586 90.2598 481.936 95.6199 481.306 100.98C481.126 102.52 481.156 104.09 480.916 105.61C480.306 109.47 479.866 109.74 476.106 108.98C475.576 108.87 475.026 108.9 474.306 108.86V111.55C470.026 112.43 467.286 109.99 467.926 105.87C469.016 98.9099 469.276 91.8798 469.986 84.8898C470.776 77.0998 472.476 69.4099 473.426 61.6299C474.816 50.1799 476.016 38.6899 476.976 27.1999C477.186 24.6499 476.266 21.9298 475.506 19.3898C474.896 17.3498 474.476 15.2399 476.366 14.1299C477.706 13.3499 479.976 13.1699 481.416 13.7499C484.366 14.9399 487.196 16.6098 489.796 18.4698C493.586 21.1898 496.346 24.7099 495.756 30.0399C496.116 30.1299 496.486 30.2099 496.846 30.2999M509.096 55.7399C513.676 48.9699 518.186 42.1498 522.476 35.2098C523.126 34.1598 522.566 32.3699 522.566 30.6299C522.486 30.6099 522.966 30.7198 523.446 30.8298C523.576 29.1298 523.916 27.4199 523.736 25.7499C523.676 25.1499 522.416 24.2898 521.636 24.2198C515.766 23.6698 513.406 29.0599 509.516 31.7899C506.376 33.9999 503.906 37.1699 501.236 39.9999C499.586 41.7499 497.416 43.4399 496.736 45.5599C495.316 49.9799 494.736 54.6799 493.786 59.2499C493.206 62.0499 492.566 64.8499 491.926 67.7899C497.006 66.9099 501.966 64.9499 505.166 60.6599L509.086 55.7399H509.096ZM477.466 22.2399C479.106 18.3499 478.876 17.3499 476.516 17.6199C476.816 19.0699 477.106 20.5099 477.466 22.2399Z" fill="white"/>
<path d="M224.336 148.9C221.986 148.28 221.326 148.21 219.646 147.62C217.526 146.88 214.476 146.18 212.916 147.32C209.636 149.73 207.346 153.38 207.286 158.37C207.256 160.45 206.506 163.77 205.296 164.3C203.006 165.3 203.026 167.23 202.436 168.94C201.256 172.37 200.666 176.09 199.186 179.33C197.056 184 194.366 188.35 191.896 192.82C188.906 198.24 185.996 203.71 182.816 208.99C182.196 210.01 180.346 210.95 179.356 210.66C177.516 210.12 176.066 208.59 177.006 205.91C178.026 203.02 179.056 200.13 179.916 197.18C180.616 194.79 182.796 192.64 181.046 189.72C180.876 189.43 181.096 188.48 181.396 188.26C183.716 186.52 184.646 184.02 184.906 181.03C184.946 180.52 185.506 180.02 185.896 179.6C187.816 177.54 188.926 172.54 188.216 170.85C188.856 170.07 189.566 169.59 189.766 168.92C190.896 165.1 188.986 160.53 185.516 158.54C183.026 157.11 180.606 155.5 178.006 154.37C176.846 153.87 175.146 153.93 174.076 154.56C173.466 154.92 173.696 156.95 173.426 158.19C172.926 160.44 172.936 163.62 171.616 164.68C169.696 166.22 169.246 168.02 168.716 170.11C168.376 171.44 168.146 172.81 167.686 174.08C164.786 182.03 161.926 189.99 158.876 197.87C156.496 204.03 156.166 210.42 156.756 216.93C157.106 220.81 158.276 224.76 161.806 226.08C165.786 227.57 170.096 228.82 174.226 228.7C180.646 228.52 185.586 224.23 189.786 219.01C190.366 218.28 190.896 217.49 191.216 217.05C193.606 220.73 195.636 224.16 197.946 227.33C200.776 231.2 204.856 232.34 209.066 232.28C210.106 232.27 211.606 230.31 212.016 228.92C212.476 227.39 211.886 225.48 211.826 223.74C211.716 220.26 211.266 216.71 211.666 213.3C212.156 209.19 213.296 205.15 214.336 201.14C214.856 199.13 215.706 197.2 216.516 195.3C218.336 191.05 220.626 186.99 221.986 182.57C223.876 176.43 225.076 170.03 226.596 163.74C227.376 160.49 228.346 157.29 228.956 154C229.326 151.98 228.906 150.03 226.616 149.51L224.336 148.92V148.9Z" fill="white"/>
<path d="M346.366 47.4198C351.186 46.7198 356.056 45.8798 360.896 45.8598C364.846 45.8598 367.066 43.8999 368.336 40.8199C369.406 38.2299 369.976 35.2898 370.106 32.4798C370.316 27.7398 362.246 23.2098 357.916 25.2898C355.906 26.2598 353.656 26.7198 351.586 27.5998C347.686 29.2498 343.516 30.5398 340.046 32.8598C335.236 36.0698 331.056 40.2098 326.436 43.7398C322.256 46.9398 319.866 51.2398 318.396 56.0798C316.846 61.2098 319.396 67.4498 324.806 69.9698C327.666 71.2998 330.606 72.4599 333.676 73.7599C331.776 75.5899 329.546 77.3198 327.846 79.4598C324.586 83.5398 320.936 87.5298 318.726 92.1698C316.526 96.7998 316.516 102.12 318.096 107.33C319.556 112.14 322.306 115.58 326.746 117.91C329.526 119.37 333.436 118.37 335.286 121.83C335.366 121.98 335.826 122.01 336.076 121.97C340.266 121.25 344.446 120.5 348.626 119.76L359.276 116.95C367.956 113.29 375.676 108.06 382.986 102.2C388.766 97.5699 392.506 91.7499 393.356 84.1999C393.886 79.4999 391.496 73.9099 387.436 71.5699C385.446 70.4199 383.516 70.2898 382.416 72.8698C380.386 77.6398 377.056 81.6698 374.586 86.2098C370.096 94.4598 361.356 98.5498 353.026 102.77C353.176 102.22 351.256 102.61 350.396 103.41C346.456 107.05 341.666 109.08 336.506 109.8C334.406 110.09 331.406 109.28 330.086 107.82C329.276 106.92 330.826 103.83 331.426 101.76C331.666 100.94 332.486 100.2 332.516 99.4098C332.656 96.1398 334.586 94.0498 336.886 92.1398C338.226 91.0298 339.646 89.9998 340.856 88.7698C342.556 87.0298 343.896 84.8798 345.756 83.3498C347.786 81.6798 350.216 80.4798 352.506 79.1198C358.296 75.6698 364.046 72.1398 369.946 68.8698C371.756 67.8698 374.096 67.8498 375.986 66.9298C376.996 66.4398 378.416 64.5499 378.166 64.0598C376.516 60.8298 374.666 57.6598 372.476 54.7798C370.726 52.4898 368.796 54.9898 366.936 55.2398C366.756 55.2598 366.576 55.3098 366.386 55.3498C357.756 56.9498 349.136 58.5999 340.486 60.0699C339.576 60.2299 338.146 59.6099 337.556 58.8799C336.356 57.3699 335.586 57.5599 334.526 58.8799C334.066 59.4499 333.396 59.8498 332.826 60.3298C332.506 60.0298 332.196 59.7198 331.886 59.4198C334.276 56.6098 336.636 53.7598 339.116 51.0398C339.116 51.0398 341.806 48.0898 346.386 47.4198" fill="white"/>
<path d="M548.476 63.8298C548.236 63.6398 548.716 64.0198 548.476 63.8298C550.036 62.0298 551.856 60.3998 553.096 58.4098C555.866 53.9598 563.666 51.7099 568.176 54.3799C570.006 55.4599 571.736 56.6998 573.526 57.8498C575.486 59.1098 576.876 58.7699 577.406 56.3699C577.966 53.8499 578.896 51.2898 578.786 48.7798C578.726 47.3698 577.176 45.2799 575.836 44.8099C573.296 43.9299 570.426 43.6698 567.696 43.7198C558.646 43.8798 551.086 35.4699 552.376 26.5099C552.636 24.6899 553.136 23.8999 555.216 24.5699C557.306 25.2499 559.546 25.6398 561.746 25.7898C568.736 26.2798 575.756 26.4798 582.746 27.0298C586.676 27.3398 590.056 29.6598 591.766 32.8398C593.706 36.4598 594.806 40.7698 595.236 44.8898C595.506 47.4098 593.686 50.0998 593.086 52.7798C592.736 54.3398 592.636 56.0798 592.956 57.6398C593.996 62.6898 591.766 66.8599 589.696 71.1099C588.566 73.4399 586.376 75.8099 586.516 78.0599C586.686 80.9799 585.296 83.1098 584.696 85.5998C584.576 86.1098 583.756 86.4498 582.716 87.3298C582.136 91.1698 581.466 95.8198 580.706 100.46C579.896 105.39 583.036 111.52 587.636 113.58C588.576 114 589.716 113.97 591.056 114.2C590.816 114.9 590.626 115.68 590.296 116.38C587.476 122.36 578.966 125.98 572.676 123.9C569.466 122.84 566.406 118.67 566.656 114.59C566.956 109.56 567.896 104.56 568.596 99.5499C568.696 98.8299 569.146 98.1399 569.176 97.4199C569.206 96.7699 568.896 96.1099 568.726 95.4499C568.166 95.7899 567.396 95.9899 567.076 96.4899C564.806 99.9599 562.796 103.6 560.386 106.96C557.226 111.36 553.916 115.67 550.366 119.76C548.206 122.25 541.376 121.91 538.756 119.46C533.726 114.75 532.196 108.83 532.896 102.12C533.086 100.28 534.796 97.9898 531.826 96.6598C531.666 96.5898 531.696 95.7599 531.866 95.3799C535.006 87.9599 538.056 80.4998 541.396 73.1598L548.466 63.8298H548.476ZM548.636 99.0198C548.836 99.0898 549.036 99.1599 549.246 99.2299C549.426 100.69 549.456 102.2 549.826 103.61C550.096 104.6 550.826 105.47 551.356 106.4C552.246 105.87 553.436 105.55 553.976 104.77C557.176 100.15 560.546 95.6099 563.256 90.6999C567.186 83.5999 570.656 76.2399 574.176 68.9199C574.606 68.0199 574.526 66.4498 573.996 65.6498C573.596 65.0398 572.096 65.0599 571.076 64.9899C570.366 64.9499 569.636 65.2499 568.916 65.3799C561.596 66.6999 556.406 70.4199 554.516 77.9899C553.866 80.5799 552.896 83.0898 552.186 85.6598C550.956 90.0998 549.826 94.5598 548.646 99.0198M585.906 30.7698L585.886 29.8998C584.996 29.8498 584.106 29.7999 583.226 29.7599C583.256 30.1599 583.286 30.8898 583.316 30.8998C584.176 30.8998 585.046 30.8398 585.916 30.7798M578.596 113.74C578.316 113.61 578.076 113.4 577.916 113.45C577.716 113.51 577.566 113.78 577.396 113.96C577.636 114.11 577.856 114.33 578.116 114.38C578.216 114.4 578.386 114.02 578.596 113.74Z" fill="white"/>
<path d="M409.766 214.76C411.996 211.57 413.836 208.87 415.806 206.26C415.956 206.07 417.016 206.57 417.396 206.67C416.976 208.2 416.656 209.4 416.186 211.11C416.206 211.11 415.546 211.27 415.416 211.31C415.226 212.94 415.176 214.27 414.886 215.54C414.366 217.83 411.986 219.63 413.736 222.58C414.186 223.34 412.306 225.52 411.416 227C409.646 229.92 408.036 232.98 405.966 235.67C403.036 239.49 396.366 239.29 392.626 235.2C389.186 231.45 386.916 227.38 388.086 221.68C389.206 216.21 388.776 210.43 389.596 204.87C390.346 199.76 391.536 194.67 393.086 189.75C394.416 185.55 396.446 181.56 398.346 177.56C400.106 173.86 401.456 170.27 398.886 166.36C398.586 165.9 398.886 164.71 399.306 164.15C402.576 159.7 402.636 159.62 408.576 161.56C410.496 162.19 412.476 163.15 413.966 164.48C417.056 167.24 419.816 170.38 422.756 173.31C424.996 175.54 424.416 178.03 423.476 180.51C422.856 182.13 421.686 183.59 421.376 185.24C420.686 188.89 419.316 191.98 416.656 194.69C415.676 195.69 415.876 197.78 415.306 199.29C413.606 203.85 411.796 208.36 410.046 212.9C409.896 213.29 409.906 213.75 409.756 214.74M409.336 226.83C408.996 227.28 408.776 227.52 408.656 227.8C408.626 227.88 408.936 228.09 409.086 228.24C409.256 228.06 409.506 227.91 409.586 227.7C409.646 227.54 409.486 227.3 409.336 226.83Z" fill="white"/>
<path d="M304.506 82.5399C304.136 85.3199 301.516 87.6999 303.556 90.9699C304.296 92.1599 303.456 94.3699 303.266 96.0999C302.816 100.32 302.346 104.54 301.846 108.76C301.416 112.36 302.586 114.97 306.296 115.94C304.436 120.61 298.736 124.65 294.146 124.65C292.016 124.65 289.886 124.61 287.766 124.48C286.966 124.43 285.986 124.29 285.426 123.81C281.436 120.36 277.986 116.53 277.886 110.82C277.826 107.49 277.576 104.12 277.966 100.84C278.276 98.3099 279.516 95.9099 280.226 93.4199C280.446 92.6599 280.406 91.7499 280.226 90.9699C279.606 88.2699 279.086 85.6699 282.166 84.0199C282.646 83.7599 283.296 83.3999 283.416 82.9599C284.596 78.5899 286.186 74.4299 288.666 70.5999C288.946 70.1599 289.126 69.2299 289.996 67.5699C293.416 66.2199 294.176 65.2999 297.666 67.5899C298.886 68.3899 300.276 69.0299 301.686 69.4399C304.806 70.3499 305.876 72.3399 305.646 75.4899C305.506 77.3199 305.356 78.3399 305.356 80.1899L304.506 82.5399Z" fill="white"/>
<path d="M199.546 93.3398C198.396 101.27 196.896 108.9 196.336 116.61C196.016 121.14 195.076 126.12 198.236 130.27C199.426 131.83 198.586 132.8 197.406 133.4C192.626 135.87 187.566 137.47 182.206 135.88C175.816 133.98 175.226 132.37 174.546 125.61C174.056 120.72 175.586 116.32 176.276 111.7C176.926 107.37 177.296 103 178.126 98.6999C178.636 96.0599 179.536 93.5899 177.286 91.3199C177.066 91.0999 177.186 90.3899 177.346 89.9899C178.976 86.0699 180.216 81.9198 182.416 78.3498C184.546 74.8998 188.616 75.2899 192.196 75.5099C195.176 75.6899 196.886 77.4998 197.386 80.4098C198.126 84.7598 198.826 89.1198 199.526 93.3398" fill="white"/>
<path d="M299.276 58.1698C296.186 57.9198 293.406 57.8799 290.696 57.4299C284.096 56.3299 280.556 48.2699 284.086 42.6099C284.226 42.3799 284.386 42.0899 284.606 41.9899C286.936 40.8999 289.456 40.1099 291.556 38.6899C293.496 37.3899 295.316 38.1999 296.986 38.4899C300.056 39.0199 303.106 40.0198 305.986 41.2198C308.556 42.2998 309.476 49.9898 307.446 51.9198C305.436 53.8198 303.406 55.6998 301.286 57.4698C300.706 57.9498 299.766 57.9998 299.276 58.1598" fill="white"/>
<path d="M417.296 134.3C419.906 134.7 422.196 134.74 424.236 135.47C425.506 135.93 426.446 137.39 427.446 138.48C427.986 139.06 428.206 139.98 428.806 140.46C430.796 142.05 432.456 143.68 431.016 146.5C430.936 146.65 430.906 146.91 430.986 147.03C432.496 149.29 431.336 151.1 429.596 152.21C427.696 153.43 425.406 154.35 423.396 151.98C423.086 151.62 422.406 151.32 421.936 151.37C415.736 152.03 411.646 148.2 407.716 144.42C405.626 142.4 408.236 136.7 411.736 135.44C413.616 134.76 415.686 134.61 417.296 134.29" fill="white"/>
<path d="M195.356 64.7799C192.216 65.1398 189.616 65.5299 187.016 65.7199C182.246 66.0599 178.636 62.2899 179.196 57.5699C179.286 56.8199 179.616 55.8199 180.186 55.4399C182.786 53.6799 185.496 52.0699 188.206 50.4699C188.606 50.2399 189.226 50.3599 189.736 50.3699C192.386 50.4199 195.046 50.6499 197.676 50.5099C201.616 50.2999 204.236 51.9899 205.356 55.8499C205.476 56.2699 205.506 56.7899 205.376 57.1899C204.426 60.0499 197.706 64.8299 195.356 64.7799Z" fill="white"/>
<path d="M481.076 264.1V253.76C480.656 253.76 480.236 253.75 479.816 253.74C479.816 255.42 480.026 257.13 479.776 258.77C478.866 264.81 480.636 270.25 483.296 275.51C483.666 276.24 484.166 277.23 484.816 277.43C487.666 278.32 486.916 280.07 486.126 281.91C483.166 288.85 473.506 291.88 467.536 285.98C466.626 285.08 465.946 283.57 465.866 282.29C465.486 276.51 465.346 270.72 465.166 264.94C465.096 262.72 465.086 260.49 465.166 258.27C465.256 255.47 465.476 252.95 467.076 250.21C468.846 247.2 468.756 243.12 469.606 239.53C469.926 238.17 470.816 236.93 471.086 235.57C471.736 232.28 473.046 229.61 476.416 228.33C476.706 228.22 476.906 227.03 476.686 226.57C475.746 224.63 474.846 222.76 476.176 220.63C476.296 220.44 476.066 219.73 475.876 219.68C472.106 218.56 474.616 216.34 475.146 214.73C476.096 211.83 477.416 209.04 478.576 206.21C478.166 206 477.766 205.8 477.356 205.59C476.606 206.82 475.686 207.97 475.126 209.28C471.806 217.05 468.576 224.87 465.286 232.66C462.166 240.05 459.396 247.63 455.686 254.72C453.986 257.96 450.546 260.38 447.606 262.83C446.806 263.5 444.826 263.29 443.616 262.84C438.066 260.78 433.786 257.12 431.966 251.38C430.336 246.23 428.126 240.86 428.296 235.65C428.576 227.05 427.736 218.29 430.606 209.81C434.116 199.48 437.956 189.41 445.836 181.5C449.656 177.66 453.356 173.56 457.736 170.48C461.676 167.7 466.236 166.09 471.376 169.17C476.416 172.2 481.936 174.45 487.306 176.89C487.846 177.13 489.316 176.52 489.606 175.93C494.576 165.85 499.426 155.7 504.346 145.59C504.736 144.79 505.456 144.13 506.076 143.46C508.836 140.45 511.596 137.51 512.276 133.18C512.506 131.7 513.396 130.23 514.286 128.96C516.376 125.96 518.076 125.73 521.096 127.72C522.096 128.38 523.096 129.05 524.166 129.6C531.156 133.21 533.646 139.81 529.906 146.74C526.576 152.91 522.716 158.82 518.696 164.57C508.166 179.63 500.406 196.05 493.986 213.18C492.366 217.49 490.546 221.72 488.866 226.01C488.396 227.21 488.016 228.47 487.766 229.73C486.026 238.59 484.226 247.44 482.686 256.34C482.256 258.84 482.616 261.48 482.616 264.05C482.106 264.06 481.586 264.07 481.076 264.08M461.096 190.63C461.496 194.76 457.966 198.45 455.856 202.19C452.516 208.1 451.026 214.36 449.876 220.64C448.616 227.58 448.856 234.79 448.586 241.89C448.546 242.97 449.306 244.07 449.696 245.16C450.666 244.44 451.726 243.81 452.576 242.97C453.216 242.34 453.686 241.49 454.076 240.66C457.546 233.34 460.846 225.94 464.466 218.69C469.576 208.46 474.726 198.23 480.246 188.21C483.196 182.87 483.406 182.69 477.226 181.85C475.586 181.63 473.926 181.59 472.266 181.59C471.666 181.59 470.916 181.81 470.486 182.2C468.656 183.89 466.956 185.73 465.116 187.42C464.016 188.44 462.766 189.29 461.076 190.61M485.426 213.68C487.016 210.39 488.656 207.12 490.156 203.79C490.406 203.25 490.096 202.45 490.036 201.77C489.376 201.95 488.396 201.91 488.116 202.34C485.886 205.72 484.576 209.41 485.416 213.68" fill="white"/>
<path d="M145.666 56.5298C144.106 59.2598 144.566 59.6599 142.546 65.5099C140.126 71.1799 138.776 72.3298 137.316 77.5198C136.606 80.0498 135.106 82.3998 133.776 84.7198C132.006 87.8098 129.926 90.7298 128.236 93.8598C126.906 96.3298 126.036 99.0498 124.836 101.6C124.146 103.06 123.256 104.44 122.386 105.81C121.746 106.81 120.706 107.47 119.626 106.86C118.906 106.45 118.396 105.47 118.046 104.63C117.596 103.57 117.316 102.43 117.116 101.29C116.836 99.7198 116.446 98.0998 116.556 96.5398C116.806 92.7598 117.206 88.9898 117.776 85.2398C118.216 82.3698 118.876 79.5098 119.666 76.7098C121.166 71.3898 123.316 66.1998 124.296 60.7998C125.106 56.3298 126.626 52.0499 127.266 47.5699C127.476 46.1299 127.436 44.6499 127.506 43.1899C127.266 43.0699 127.026 42.9598 126.796 42.8398C126.216 43.3398 125.446 43.7198 125.086 44.3498C122.836 48.2998 120.676 52.2898 118.486 56.2798C118.276 56.6598 118.146 57.1198 117.846 57.4098C114.056 61.1798 112.766 66.4598 109.776 70.7098C109.176 71.5598 108.376 70.9798 107.686 71.7698L107.796 73.1498C107.766 72.8298 107.746 72.5098 107.686 71.7698C105.436 73.8798 103.566 75.9898 103.446 78.8398C103.336 81.4198 102.516 83.7298 101.656 86.0198C99.4556 91.9498 96.6756 97.6098 92.9056 102.72C91.7856 104.23 91.3656 105.77 91.6056 107.59C92.0456 110.84 89.5756 112.67 87.7956 114.69C87.2656 115.29 85.5556 114.93 84.3856 114.88C82.5656 114.79 80.7556 114.59 78.9356 114.44C77.7456 114.34 76.5156 114.4 75.3756 114.1C74.4856 113.86 73.4956 113.35 72.9356 112.66C69.6756 108.67 70.1956 103.11 73.9156 99.4298C74.8056 98.5498 75.4656 97.3698 75.9856 96.2098C77.2756 93.3398 78.4156 90.3998 79.6356 87.4898C79.8456 86.9898 80.0556 86.4598 80.3956 86.0498C85.5956 79.7798 88.1456 72.0498 92.0056 65.0498C93.5656 62.1998 94.6656 59.1099 96.1256 56.1999C98.5956 51.2599 101.136 46.3498 103.716 41.4598C105.656 37.7798 106.596 34.0599 105.136 29.9399C104.796 28.9899 105.056 27.8198 105.096 26.7498C105.156 25.2598 105.286 23.7598 105.366 22.3998C103.766 21.6398 102.446 21.0098 100.786 20.2198C98.7856 20.8198 96.3456 21.3898 94.0456 22.2998C92.7956 22.7898 91.5556 23.6898 90.6956 24.7198C89.0856 26.6198 87.8356 28.8199 86.2756 30.7599C85.5056 31.7199 84.4856 32.9198 83.4056 33.1098C80.0356 34.5698 79.1856 35.3099 76.7856 37.8199C76.2756 39.6999 75.9956 40.1898 75.0656 42.0798C74.6856 41.4298 75.3656 42.5798 75.0656 42.0798C72.5256 45.8698 71.9156 50.1598 71.2956 54.4298C70.9856 56.5698 70.9356 58.7598 70.7756 60.9198C70.5856 63.5898 70.9856 66.1199 72.6756 68.3098C72.8056 68.4798 72.9856 68.6398 73.0556 68.8398C74.0156 71.5398 74.7856 74.2699 76.0756 76.8799C76.7356 78.2299 76.1356 80.1998 76.1156 81.6398C73.6556 82.1698 71.6956 82.6298 69.7256 82.9898C69.0956 83.1098 68.3556 83.1599 67.7856 82.9398C64.6656 81.7299 61.3756 80.7598 58.5456 79.0498C56.0756 77.5498 54.7256 74.9399 55.4856 71.7599C55.5156 71.6499 55.5956 71.5099 55.5556 71.4499C54.1656 69.1199 54.4856 66.8398 55.5156 64.4698C55.6756 64.0898 54.6856 63.3298 54.5256 62.6698C54.3256 61.8398 54.3256 60.9198 54.4556 60.0798C54.6256 59.0098 55.0056 57.9698 55.4056 56.5198C54.0856 55.2198 54.4556 53.4299 55.2656 51.4999C56.7856 47.8999 58.1456 44.2298 59.6056 40.5998C61.3856 36.1798 64.0656 32.4098 67.7456 29.3598C68.1656 29.0098 68.6156 28.6698 68.9256 28.2398C74.2756 20.6198 82.8656 16.9699 89.7756 11.2599C90.6256 10.5599 91.9256 10.3098 93.0556 10.0398C95.1556 9.53983 97.3456 9.33981 99.4056 8.70981C101.556 8.05981 103.626 7.86982 105.816 8.40982C107.606 8.84982 109.436 9.13986 111.256 9.44986C112.996 9.73986 114.246 10.6198 114.996 12.2398C117.826 18.3598 118.696 24.5898 115.956 30.9798C115.176 32.7998 115.056 34.6198 115.656 36.6698C115.946 36.2698 116.316 35.9098 116.506 35.4698C118.226 31.6098 120.876 28.6198 124.556 26.4798C125.436 25.9698 126.226 24.9698 126.606 24.0198C127.816 20.9598 130.796 20.7899 133.226 19.8199C134.286 19.3899 135.586 19.5799 136.776 19.4399C138.136 19.2799 138.916 19.8098 139.616 21.0398C141.796 24.8698 141.186 28.7498 140.316 32.7498C139.116 38.2498 138.146 43.7899 137.116 49.3199C137.066 49.5899 137.286 49.9199 137.436 50.3799C137.866 50.2999 138.486 50.3698 138.616 50.1398C139.716 48.2298 140.876 46.3399 141.726 44.3199C143.756 39.4699 144.416 34.1299 147.416 29.5699C149.426 26.5099 150.696 22.9698 152.346 19.6698C152.726 18.9098 153.306 18.2398 153.836 17.4598C154.836 18.8598 155.816 18.4298 156.126 17.2798C156.926 14.2898 158.706 12.5698 161.716 11.8698C162.596 11.6698 163.316 10.7998 164.146 10.2998C165.606 9.41984 166.996 8.29982 168.586 7.77982C172.276 6.56982 175.586 8.24983 176.956 11.9198C177.556 13.5298 178.066 15.2698 178.126 16.9698C178.256 20.8398 178.976 24.7898 177.386 28.5598C177.346 28.6598 177.286 28.7598 177.286 28.8698C177.106 36.2098 173.096 42.4898 171.606 49.4598C171.176 51.4698 170.876 53.5098 170.516 55.5298C170.246 57.0198 170.076 58.5399 169.696 59.9999C169.016 62.6199 168.246 65.2299 167.416 67.8098C167.026 69.0398 167.426 70.2599 166.786 71.3799L166.496 73.4499C166.616 73.4699 166.736 73.4899 166.856 73.5099C166.776 74.0299 166.736 74.5698 166.606 75.0798C165.816 78.2398 164.986 81.3998 164.186 84.5598C163.526 87.1498 163.996 89.4598 163.076 95.1098C162.086 103.54 158.596 111.49 159.006 114.9C158.076 115.38 159.606 114.59 159.006 114.9C159.056 115.62 159.206 116.13 159.096 116.58C157.946 121.21 156.916 125.89 155.536 130.45C154.466 133.97 152.516 134.9 148.836 134.44C148.126 134.35 146.666 133.78 145.986 134.02C142.436 135.27 138.836 133.47 137.206 130.15C135.076 125.82 135.856 121.88 137.716 117.77C139.006 114.92 143.366 97.8498 144.116 94.8098C144.966 91.3598 146.946 88.1698 146.556 84.4298C148.586 82.3398 148.436 79.6098 148.796 77.0198C148.856 76.6198 149.186 76.2598 149.426 75.8998C150.656 74.1098 150.616 74.1198 149.916 71.7198C149.746 71.1298 149.886 70.4298 149.986 69.7898C151.086 63.1598 152.226 56.5298 153.316 49.8998C153.516 48.6698 153.526 47.4198 153.666 45.5798C151.196 46.8098 150.636 48.8299 149.446 50.2599C148.266 51.6699 147.246 53.2198 146.166 54.7098L145.646 56.5198L145.666 56.5298ZM74.2656 104.39C73.3956 108.47 73.6956 109.16 76.5456 110.11C77.1156 107.8 75.6156 106.3 74.2656 104.39ZM74.8356 27.1598C75.0356 27.3198 75.2356 27.4798 75.4356 27.6398C76.0356 26.9198 76.6456 26.1898 77.2456 25.4698C77.0856 25.3298 76.9256 25.1898 76.7656 25.0498L74.8356 27.1598ZM58.4356 75.7798C58.2656 75.9398 58.0956 76.0998 57.9156 76.2498C58.4556 76.8198 59.0056 77.3799 59.5456 77.9499C59.6856 77.8099 59.8256 77.6698 59.9656 77.5298L58.4356 75.7698V75.7798ZM174.636 25.6698C174.426 25.5698 174.206 25.4699 173.996 25.3799C173.846 25.7899 173.676 26.1898 173.566 26.6098C173.556 26.6698 173.866 26.7998 174.026 26.9098C174.226 26.4998 174.426 26.0898 174.626 25.6798" fill="white"/>
</svg>
