<svg width="261" height="260" viewBox="0 0 261 260" fill="none" xmlns="http://www.w3.org/2000/svg">
<path d="M221.75 8.35798C238.679 8.35798 252.404 22.0411 252.404 38.9194V221.07C252.404 237.949 238.679 251.632 221.75 251.632H39.0474C22.118 251.632 8.39345 237.949 8.39345 221.07V38.9295C8.39345 22.0513 22.118 8.36812 39.0474 8.36812H221.75M221.75 0H39.0474C17.5194 0 0 17.4665 0 38.9295V221.081C0 242.544 17.5194 260.01 39.0474 260.01H221.75C243.278 260.01 260.797 242.544 260.797 221.081V38.9295C260.797 17.4665 243.278 0 221.75 0Z" fill="white"/>
</svg>
