<svg width="239" height="37" viewBox="0 0 239 37" fill="none" xmlns="http://www.w3.org/2000/svg">
<path d="M15.92 32.2C16.3 29.98 17.55 28.3 19.12 27.38C21.29 29.33 24.54 30.85 28.5 30.85C33.16 30.85 35.22 28.9 35.22 26.13C35.22 23.85 34.14 22.17 27.68 20.6C22.1 19.3 17 17.02 16.95 10.14C16.95 4.12001 21.77 0 29.15 0C34.9 0 38.53 1.74 40.75 3.47C40.59 5.37 39.39 7.53999 37.77 8.45999C35.6 6.88999 32.84 5.64001 28.93 5.64001C25.02 5.64001 22.97 7.42999 22.97 9.70999C22.97 11.99 24.05 13.23 30.02 14.7C36.8 16.38 41.24 19.09 41.3 25.49C41.35 32.54 36.37 36.55 28.45 36.55C21.89 36.55 17.99 34.16 15.93 32.21" fill="white"/>
<path d="M68.35 19.9V33.94C65.31 35.4 60.81 36.49 56.48 36.49C48.89 36.49 45.15 33.29 45.15 28.14C45.15 22.99 49.76 19.95 55.99 20.01C58.43 20.01 60.54 20.34 62.33 20.99V19.53C62.33 16.44 60.27 14.6 56.15 14.6C53.06 14.6 50.46 15.79 48.99 16.88C47.47 16.12 46.44 14.71 46.17 12.92C47.69 11.46 51.59 9.29001 56.58 9.29001C63.36 9.29001 68.34 12.33 68.34 19.92M57.02 31.77C58.97 31.77 60.76 31.44 62.33 30.96V25.43C60.65 24.73 58.64 24.4 56.48 24.4C53.44 24.4 51.38 25.43 51.38 27.87C51.38 30.31 53.22 31.77 57.02 31.77Z" fill="white"/>
<path d="M98.81 19.9V35.68C97.78 35.9 96.7 35.95 95.72 35.95C94.69 35.95 93.71 35.9 92.63 35.68V21.37C92.63 16.65 90.35 14.86 86.4 14.86C84.01 14.86 81.9 15.56 80.71 16.27V35.68C79.73 35.9 78.65 35.95 77.62 35.95C76.64 35.95 75.61 35.9 74.58 35.68V13.29C76.86 11.39 81.36 9.22 86.89 9.22C95.18 9.22 98.82 13.99 98.82 19.9" fill="white"/>
<path d="M112.91 33.72C113.29 31.66 114.54 29.92 116.22 29C117.2 30.03 118.44 31.11 120.45 31.11C123.21 31.11 124.9 29.81 124.9 26.34V0.910004C125.82 0.640004 126.91 0.589996 127.94 0.589996C128.97 0.589996 130 0.640004 131.03 0.910004V26.28C131.03 33.17 126.8 36.8 120.62 36.8C116.88 36.8 114.11 35.12 112.92 33.71" fill="white"/>
<path d="M162.08 10.19V33.77C159.48 35.02 155.52 36.48 149.83 36.48C141.81 36.48 138.23 32.52 138.23 26.29V10.19C139.31 9.97 140.34 9.92001 141.37 9.92001C142.35 9.92001 143.43 9.97 144.41 10.19V24.5C144.41 28.67 145.49 31.01 150.64 31.01C152.65 31.01 154.33 30.68 155.9 30.03V10.19C156.93 9.97 158.01 9.92001 158.99 9.92001C160.02 9.92001 161.05 9.97 162.08 10.19Z" fill="white"/>
<path d="M190.38 19.9V33.94C187.34 35.4 182.84 36.49 178.51 36.49C170.92 36.49 167.18 33.29 167.18 28.14C167.18 22.99 171.79 19.95 178.02 20.01C180.46 20.01 182.57 20.34 184.36 20.99V19.53C184.36 16.44 182.3 14.6 178.18 14.6C175.09 14.6 172.49 15.79 171.02 16.88C169.5 16.12 168.47 14.71 168.2 12.92C169.72 11.46 173.62 9.29001 178.61 9.29001C185.39 9.29001 190.38 12.33 190.38 19.92M179.05 31.77C181 31.77 182.79 31.44 184.36 30.96V25.43C182.68 24.73 180.67 24.4 178.5 24.4C175.46 24.4 173.4 25.43 173.4 27.87C173.4 30.31 175.24 31.77 179.04 31.77" fill="white"/>
<path d="M220.85 19.9V35.68C219.82 35.9 218.74 35.95 217.76 35.95C216.73 35.95 215.75 35.9 214.67 35.68V21.37C214.67 16.65 212.39 14.86 208.44 14.86C206.05 14.86 203.94 15.56 202.75 16.27V35.68C201.77 35.9 200.69 35.95 199.66 35.95C198.68 35.95 197.65 35.9 196.62 35.68V13.29C198.9 11.39 203.4 9.22 208.93 9.22C217.23 9.22 220.86 13.99 220.86 19.9" fill="white"/>
<path d="M238.7 22.87C238.7 24.74 237.19 26.25 235.32 26.25C233.45 26.25 231.94 24.74 231.94 22.87C231.94 21 233.45 19.49 235.32 19.49C237.19 19.49 238.7 21 238.7 22.87Z" fill="white"/>
<path d="M6.76001 22.87C6.76001 24.74 5.25 26.25 3.38 26.25C1.51 26.25 0 24.74 0 22.87C0 21 1.51 19.49 3.38 19.49C5.25 19.49 6.76001 21 6.76001 22.87Z" fill="white"/>
</svg>
